<svg width="177" height="53" viewBox="0 0 177 53" fill="none" xmlns="http://www.w3.org/2000/svg">
<path d="M0.600006 39.479V36.047C1.39734 36.0123 2.05601 35.9083 2.57601 35.735C3.13067 35.5617 3.54667 35.163 3.82401 34.539C4.13601 33.915 4.29201 32.9097 4.29201 31.523V11.607C4.29201 10.671 4.30934 9.76966 4.34401 8.903C4.41334 8.03633 4.46534 7.37766 4.50001 6.927C3.94534 6.96166 3.25201 6.99633 2.42001 7.031C1.58801 7.031 0.98134 7.04833 0.600006 7.083V3.079H26.6L26.912 13.167H23.48C23.48 11.2603 23.1507 9.82166 22.492 8.851C21.8333 7.88033 21.0187 7.239 20.048 6.927C19.0773 6.58033 18.124 6.42433 17.188 6.459L15.316 6.511C14.588 6.511 13.964 6.615 13.444 6.823C12.924 6.99633 12.5253 7.41233 12.248 8.071C11.9707 8.695 11.832 9.683 11.832 11.035V20.083H17.188L16.98 15.611H20.984V28.247H17.552C17.552 26.791 17.3267 25.7337 16.876 25.075C16.4253 24.4163 15.8013 24.0177 15.004 23.879C14.2413 23.7057 13.392 23.6363 12.456 23.671H11.832V30.951C11.832 31.887 11.8147 32.7883 11.78 33.655C11.7453 34.5217 11.6933 35.1803 11.624 35.631C12.0053 35.5963 12.508 35.579 13.132 35.579C13.756 35.5443 14.3627 35.527 14.952 35.527C15.576 35.4923 16.0093 35.475 16.252 35.475V39.479H0.600006Z" fill="white"/>
<path d="M29.0773 36.099C30.048 36.099 30.7413 35.9083 31.1573 35.527C31.5733 35.1457 31.8333 34.6083 31.9373 33.915C32.076 33.187 32.1453 32.3723 32.1453 31.471V22.735C32.1453 22.111 32.1627 21.4177 32.1973 20.655C32.232 19.8577 32.284 19.0777 32.3533 18.315C31.7987 18.3497 31.14 18.3843 30.3773 18.419C29.6493 18.419 29.0947 18.4363 28.7133 18.471V14.519H30.7933C32.1453 14.519 33.376 14.3457 34.4853 13.999C35.6293 13.6523 36.3747 13.3057 36.7213 12.959H39.2693C39.3387 13.3057 39.3907 13.9643 39.4253 14.935C39.46 15.871 39.4773 16.703 39.4773 17.431C40.4133 16.287 41.2973 15.3683 42.1293 14.675C42.9613 13.9817 43.776 13.479 44.5733 13.167C45.4053 12.8203 46.2373 12.647 47.0693 12.647C48.2827 12.647 49.34 12.9937 50.2413 13.687C51.1427 14.3457 51.5933 15.4377 51.5933 16.963C51.5933 17.483 51.472 18.0377 51.2293 18.627C50.9867 19.1817 50.6053 19.6497 50.0853 20.031C49.5653 20.4123 48.8547 20.603 47.9533 20.603C47.26 20.603 46.5493 20.395 45.8213 19.979C45.0933 19.563 44.6773 18.7657 44.5733 17.587C43.88 17.587 43.1867 17.8817 42.4933 18.471C41.8 19.0257 41.176 19.7017 40.6213 20.499C40.1013 21.2617 39.7373 21.9723 39.5293 22.631V31.107C39.5293 31.5923 39.512 32.2857 39.4773 33.187C39.4427 34.0537 39.3907 34.8857 39.3213 35.683C39.876 35.6137 40.4827 35.579 41.1413 35.579C41.8347 35.5443 42.3547 35.527 42.7013 35.527V39.479H29.0773V36.099Z" fill="white"/>
<path d="M54.0617 36.099C55.0324 36.099 55.7257 35.9083 56.1417 35.527C56.5577 35.1457 56.8177 34.6083 56.9217 33.915C57.0604 33.187 57.1297 32.3723 57.1297 31.471V22.839C57.1297 22.215 57.147 21.5043 57.1817 20.707C57.2164 19.875 57.2684 19.0777 57.3377 18.315C56.783 18.3497 56.1244 18.3843 55.3617 18.419C54.6337 18.419 54.079 18.4363 53.6977 18.471V14.519C55.2924 14.519 56.6444 14.4323 57.7537 14.259C58.863 14.0857 59.7297 13.8777 60.3537 13.635C61.0124 13.3923 61.463 13.167 61.7057 12.959H64.5137V31.107C64.5137 31.5923 64.4964 32.2857 64.4617 33.187C64.427 34.0537 64.375 34.8857 64.3057 35.683C64.8604 35.6137 65.467 35.579 66.1257 35.579C66.819 35.5443 67.339 35.527 67.6857 35.527V39.479H54.0617V36.099ZM60.5617 8.851C59.383 8.851 58.4124 8.435 57.6497 7.603C56.887 6.771 56.5057 5.76566 56.5057 4.587C56.5057 3.40833 56.9044 2.403 57.7017 1.571C58.499 0.738998 59.435 0.322998 60.5097 0.322998C61.619 0.322998 62.5377 0.738998 63.2657 1.571C64.0284 2.403 64.4097 3.40833 64.4097 4.587C64.4097 5.76566 64.063 6.771 63.3697 7.603C62.6764 8.435 61.7404 8.851 60.5617 8.851Z" fill="white"/>
<path d="M83.0334 40.311C81.5427 40.311 80.0867 40.1203 78.6654 39.739C77.2441 39.3577 76.1347 38.8723 75.3374 38.283L75.4414 39.843H71.4894L71.2814 30.899H74.6614C74.7654 31.939 75.1814 32.8923 75.9094 33.759C76.6374 34.6257 77.5907 35.319 78.7694 35.839C79.9481 36.3243 81.2654 36.567 82.7214 36.567C83.3107 36.567 83.8654 36.4803 84.3854 36.307C84.9401 36.1337 85.3907 35.8563 85.7374 35.475C86.1187 35.059 86.3094 34.5563 86.3094 33.967C86.3094 33.3083 86.0667 32.771 85.5814 32.355C85.1307 31.939 84.4547 31.5403 83.5534 31.159C82.6867 30.7777 81.5947 30.3443 80.2774 29.859C79.2027 29.443 78.1107 29.0097 77.0014 28.559C75.9267 28.1083 74.9214 27.571 73.9854 26.947C73.0841 26.2883 72.3561 25.491 71.8014 24.555C71.2467 23.5843 70.9694 22.4057 70.9694 21.019C70.9694 20.0137 71.1601 19.0257 71.5414 18.055C71.9227 17.0497 72.5121 16.1483 73.3094 15.351C74.1067 14.519 75.1121 13.8603 76.3254 13.375C77.5734 12.8897 79.0467 12.647 80.7454 12.647C81.6814 12.647 82.7387 12.803 83.9174 13.115C85.1307 13.3923 86.1534 13.8257 86.9854 14.415V12.907H90.9374V22.111H87.5574C87.3494 20.8977 86.9161 19.8577 86.2574 18.991C85.6334 18.1243 84.8187 17.4657 83.8134 17.015C82.8081 16.5297 81.6814 16.287 80.4334 16.287C79.5667 16.287 78.7694 16.495 78.0414 16.911C77.3481 17.327 77.0014 18.0377 77.0014 19.043C77.0014 19.8403 77.2787 20.4817 77.8334 20.967C78.3881 21.4177 79.1507 21.799 80.1214 22.111C81.0921 22.423 82.1667 22.787 83.3454 23.203C85.1134 23.7923 86.6734 24.4857 88.0254 25.283C89.4121 26.0803 90.5041 27.051 91.3014 28.195C92.0987 29.3043 92.4974 30.6737 92.4974 32.303C92.4974 34.1057 92.0467 35.5963 91.1454 36.775C90.2441 37.9537 89.0654 38.8377 87.6094 39.427C86.1881 40.0163 84.6627 40.311 83.0334 40.311Z" fill="white"/>
<path d="M95.7917 52.739V49.359C96.7624 49.359 97.4557 49.1683 97.8717 48.787C98.3224 48.4057 98.5997 47.851 98.7037 47.123C98.8424 46.4297 98.9117 45.6323 98.9117 44.731V22.735C98.9117 22.111 98.929 21.4177 98.9637 20.655C98.9984 19.8577 99.0504 19.0777 99.1197 18.315C98.565 18.3497 97.9064 18.3843 97.1437 18.419C96.381 18.419 95.809 18.4363 95.4277 18.471V14.519C97.057 14.519 98.409 14.4323 99.4837 14.259C100.593 14.0857 101.46 13.8777 102.084 13.635C102.742 13.3923 103.193 13.167 103.436 12.959H105.984C106.053 13.3057 106.105 13.739 106.14 14.259C106.174 14.7443 106.209 15.143 106.244 15.455C107.457 14.415 108.653 13.687 109.832 13.271C111.045 12.855 112.189 12.647 113.264 12.647C115.344 12.647 117.164 13.1843 118.724 14.259C120.318 15.3337 121.549 16.859 122.416 18.835C123.317 20.811 123.768 23.1337 123.768 25.803C123.768 28.5763 123.23 31.0723 122.156 33.291C121.081 35.475 119.573 37.191 117.632 38.439C115.725 39.687 113.472 40.311 110.872 40.311C109.936 40.311 109.086 40.207 108.324 39.999C107.596 39.8257 106.902 39.6177 106.244 39.375V44.367C106.244 44.8523 106.226 45.5283 106.192 46.395C106.192 47.2963 106.157 48.1457 106.088 48.943C106.642 48.8737 107.249 48.8217 107.908 48.787C108.566 48.787 109.069 48.787 109.416 48.787V52.739H95.7917ZM110.04 36.411C111.634 36.3763 112.865 35.9083 113.732 35.007C114.633 34.071 115.257 32.8577 115.604 31.367C115.95 29.8763 116.124 28.2817 116.124 26.583C116.124 24.9883 115.933 23.4803 115.552 22.059C115.17 20.6377 114.564 19.4937 113.732 18.627C112.9 17.7257 111.808 17.2923 110.456 17.327C109.589 17.3617 108.792 17.587 108.064 18.003C107.336 18.3843 106.729 18.9217 106.244 19.615C106.244 20.6897 106.244 21.7643 106.244 22.839C106.244 23.879 106.244 24.919 106.244 25.959C106.244 26.999 106.244 28.0563 106.244 29.131C106.244 30.171 106.244 31.2283 106.244 32.303C106.244 33.343 106.244 34.4003 106.244 35.475C106.625 35.7177 107.162 35.943 107.856 36.151C108.549 36.359 109.277 36.4457 110.04 36.411Z" fill="white"/>
<path d="M139.866 40.311C137.335 40.311 135.099 39.7563 133.158 38.647C131.217 37.503 129.709 35.9083 128.634 33.863C127.559 31.783 127.022 29.339 127.022 26.531C127.022 24.1043 127.559 21.8337 128.634 19.719C129.709 17.6043 131.217 15.9057 133.158 14.623C135.134 13.3057 137.422 12.647 140.022 12.647C141.478 12.647 142.899 12.855 144.286 13.271C145.673 13.6523 146.921 14.3283 148.03 15.299C149.174 16.2697 150.075 17.587 150.734 19.251C151.427 20.915 151.757 22.995 151.722 25.491L134.666 25.803C134.666 27.675 134.891 29.3563 135.342 30.847C135.827 32.3377 136.607 33.5163 137.682 34.383C138.757 35.2497 140.196 35.683 141.998 35.683C142.692 35.683 143.471 35.5617 144.338 35.319C145.239 35.0763 146.141 34.6777 147.042 34.123C147.978 33.5337 148.845 32.7537 149.642 31.783L151.982 33.967C150.734 35.735 149.399 37.087 147.978 38.023C146.557 38.9243 145.135 39.531 143.714 39.843C142.327 40.155 141.045 40.311 139.866 40.311ZM134.978 22.163H144.546C144.511 20.707 144.303 19.563 143.922 18.731C143.575 17.8643 143.09 17.2403 142.466 16.859C141.842 16.4777 141.114 16.287 140.282 16.287C138.757 16.287 137.561 16.8417 136.694 17.951C135.828 19.0257 135.255 20.4297 134.978 22.163Z" fill="white"/>
<path d="M167.483 40.311C165.992 40.311 164.536 40.1203 163.115 39.739C161.693 39.3577 160.584 38.8723 159.787 38.283L159.891 39.843H155.939L155.731 30.899H159.111C159.215 31.939 159.631 32.8923 160.359 33.759C161.087 34.6257 162.04 35.319 163.219 35.839C164.397 36.3243 165.715 36.567 167.171 36.567C167.76 36.567 168.315 36.4803 168.835 36.307C169.389 36.1337 169.84 35.8563 170.187 35.475C170.568 35.059 170.759 34.5563 170.759 33.967C170.759 33.3083 170.516 32.771 170.031 32.355C169.58 31.939 168.904 31.5403 168.003 31.159C167.136 30.7777 166.044 30.3443 164.727 29.859C163.652 29.443 162.56 29.0097 161.451 28.559C160.376 28.1083 159.371 27.571 158.435 26.947C157.533 26.2883 156.805 25.491 156.251 24.555C155.696 23.5843 155.419 22.4057 155.419 21.019C155.419 20.0137 155.609 19.0257 155.991 18.055C156.372 17.0497 156.961 16.1483 157.759 15.351C158.556 14.519 159.561 13.8603 160.775 13.375C162.023 12.8897 163.496 12.647 165.195 12.647C166.131 12.647 167.188 12.803 168.367 13.115C169.58 13.3923 170.603 13.8257 171.435 14.415V12.907H175.387V22.111H172.007C171.799 20.8977 171.365 19.8577 170.707 18.991C170.083 18.1243 169.268 17.4657 168.263 17.015C167.257 16.5297 166.131 16.287 164.883 16.287C164.016 16.287 163.219 16.495 162.491 16.911C161.797 17.327 161.451 18.0377 161.451 19.043C161.451 19.8403 161.728 20.4817 162.283 20.967C162.837 21.4177 163.6 21.799 164.571 22.111C165.541 22.423 166.616 22.787 167.795 23.203C169.563 23.7923 171.123 24.4857 172.475 25.283C173.861 26.0803 174.953 27.051 175.751 28.195C176.548 29.3043 176.947 30.6737 176.947 32.303C176.947 34.1057 176.496 35.5963 175.595 36.775C174.693 37.9537 173.515 38.8377 172.059 39.427C170.637 40.0163 169.112 40.311 167.483 40.311Z" fill="white"/>
</svg>
